PathFileType	4	(X/Y/Z)	C:\Users\Basilio\Documents\Thesis Gigler\squatting_fais\c3dfiles\041\SLS_pre_front4\markers_experimental.trc
DataRate	CameraRate	NumFrames	NumMarkers	Units	OrigDataRate	OrigDataStartFrame	OrigNumFrames
200.000000	200.000000	4	63	mm	200.000000	0	1381
Frame#	Time	FHD			LBHD			RBHD			C7			T10			CLAV			LSHO			LUUPA			LMUPA			LDUPA			LLEP			LMEP			LRAD			LUL			LRFIN			RSHO			RUPA1			RMUPA			RDUPA			RLEP			RMEP			RRAD			RUL			RUFIN			LASI			RASI			USACR			RSACR			LTHI1			LTHI2			LTHI3			LTHI4			LLFC			LMFC			LTIB1			LTIB2			LTIB3			LTIB4			LLMAL			LMMAL			LHEE			LMT1			LMT2			LMT5			RTHI			RTHI2			RTHI3			RTHI4			RLFC			RMFC			RTIB1			RTIB2			RTIB3			RTIB4			RLMAL			RMMAL			RHEE			RMT1			RMT2			RMT5			LSACR			*61			*62			
		X1	Y1	Z1	X2	Y2	Z2	X3	Y3	Z3	X4	Y4	Z4	X5	Y5	Z5	X6	Y6	Z6	X7	Y7	Z7	X8	Y8	Z8	X9	Y9	Z9	X10	Y10	Z10	X11	Y11	Z11	X12	Y12	Z12	X13	Y13	Z13	X14	Y14	Z14	X15	Y15	Z15	X16	Y16	Z16	X17	Y17	Z17	X18	Y18	Z18	X19	Y19	Z19	X20	Y20	Z20	X21	Y21	Z21	X22	Y22	Z22	X23	Y23	Z23	X24	Y24	Z24	X25	Y25	Z25	X26	Y26	Z26	X27	Y27	Z27	X28	Y28	Z28	X29	Y29	Z29	X30	Y30	Z30	X31	Y31	Z31	X32	Y32	Z32	X33	Y33	Z33	X34	Y34	Z34	X35	Y35	Z35	X36	Y36	Z36	X37	Y37	Z37	X38	Y38	Z38	X39	Y39	Z39	X40	Y40	Z40	X41	Y41	Z41	X42	Y42	Z42	X43	Y43	Z43	X44	Y44	Z44	X45	Y45	Z45	X46	Y46	Z46	X47	Y47	Z47	X48	Y48	Z48	X49	Y49	Z49	X50	Y50	Z50	X51	Y51	Z51	X52	Y52	Z52	X53	Y53	Z53	X54	Y54	Z54	X55	Y55	Z55	X56	Y56	Z56	X57	Y57	Z57	X58	Y58	Z58	X59	Y59	Z59	X60	Y60	Z60	X61	Y61	Z61	X62	Y62	Z62	X63	Y63	Z63	

1	0	-234.6458282470704	1786.723022460938	-992.2429809570315	-409.5079956054689	1706.569091796875	-1059.988403320313	-381.7835388183594	1708.08349609375	-909.3001708984377	-432.364227294922	1557.903930664063	-996.8132934570315	-441.5571594238282	1240.356567382813	-985.0411376953127	-271.5482788085938	1503.399169921875	-1010.190185546875	-370.0670776367188	1545.183471679688	-1174.863891601563	-373.4848632812501	1352.337524414063	-1263.048461914063	-331.5470275878907	1328.173583984375	-1257.20166015625	-368.7908020019532	1285.8359375	-1282.238159179688	-361.2076416015626	1237.959350585938	-1288.526000976563	-370.5888366699219	1199.45849609375	-1212.324096679688	-196.7107391357422	1013.328674316406	-1278.699951171875	-254.6952362060547	998.4395751953127	-1322.367309570313	-151.5242156982422	962.315124511719	-1317.624877929688	-327.4370117187501	1547.709594726563	-834.1428833007815	-362.3376770019532	1337.836303710938	-734.0797119140626	-313.3050537109376	1328.7451171875	-739.9298706054689	-331.6059875488282	1275.619506835938	-721.1066894531251	-322.0518798828126	1231.882446289063	-715.8728637695314	-354.5140075683594	1203.991577148438	-794.848083496094	-187.3341369628907	1007.870178222656	-770.0681152343752	-241.0430603027344	988.3515625000002	-719.8718872070314	-142.1631164550782	946.3145141601565	-752.2288208007814	-270.3426513671876	1060.248779296875	-1105.684326171875	-263.9381713867188	1056.242065429688	-877.6435546875002	-446.5850524902345	1126.62744140625	-986.0434570312502	-460.5101928710939	1100.090942382813	-958.4105224609377	-371.8483581542969	846.0435791015627	-1165.189086914063	-330.6833801269532	771.9809570312502	-1158.306030273438	-283.4680175781251	779.4899902343752	-1149.593383789063	-354.0342102050782	717.4083251953126	-1148.083374023438	-323.6266174316407	539.2282104492189	-1127.213745117188	-318.6819458007813	524.3975219726564	-1007.580749511719	-302.2976074218751	347.6762084960938	-1065.64306640625	-350.7808837890626	304.8672180175782	-1129.048828125	-313.4250793457032	300.5017395019532	-1101.693115234375	-320.7709960937501	223.9539184570313	-1067.735473632813	-382.8221435546876	133.3465270996094	-1105.235961914063	-345.7561645507813	137.6289520263672	-1023.765686035156	-448.8106079101564	117.1469879150391	-1063.2197265625	-241.8191833496094	63.67976379394533	-1038.985595703125	-235.6531066894532	59.00741195678712	-1085.00732421875	-284.3762512207032	45.45013046264649	-1137.502563476563	-373.8667602539063	800.230163574219	-786.3291625976565	-333.5466308593751	748.3040771484376	-776.2175292968752	-300.5296325683594	751.1131591796876	-779.7978515625002	-356.5517883300782	666.9522094726564	-785.4635009765627	-349.2286987304688	543.2154541015626	-771.117126464844	-326.2828674316407	510.3878173828126	-884.763366699219	-317.7871093750001	375.9373779296876	-756.8698730468751	-401.758270263672	303.8934020996094	-735.9720458984376	-355.4195556640626	300.3395080566407	-733.6703491210939	-332.6680297851563	248.3374481201172	-754.7475585937501	-392.2325439453126	137.076904296875	-728.2644042968751	-360.7245483398438	143.2151031494141	-806.308044433594	-451.8639526367189	115.0531997680664	-776.2651367187502	-245.1814270019532	56.04451370239259	-783.6420898437502	-241.3706512451172	57.80649185180665	-731.3516235351564	-288.3940124511719	51.30057907104494	-682.7226562500001	nan	nan	nan	-4216.515625000001	853.0485839843752	-3944.720458984376	nan	nan	nan	
2	0.005	-234.8946685791016	1786.657470703125	-992.6319580078127	-409.8914794921876	1706.502197265625	-1060.439086914063	-381.9252624511719	1708.092895507813	-909.665466308594	-432.6605529785157	1557.755004882813	-997.2034912109377	-441.6776733398439	1240.21923828125	-985.4133300781252	-271.8904113769532	1503.3125	-1010.609436035156	-370.3109741210938	1545.184204101563	-1175.14404296875	-372.7913208007813	1352.528198242188	-1263.620239257813	-330.6731872558594	1328.511596679688	-1257.69677734375	-367.3606262207032	1286.215942382813	-1283.136840820313	-359.3715209960938	1238.453247070313	-1289.681640625	-370.0585632324219	1199.796264648438	-1213.578735351563	-195.4644012451172	1013.596618652344	-1278.523803710938	-252.7183074951172	998.7196044921877	-1323.4169921875	-149.7287750244141	963.8237915039065	-1317.09619140625	-327.5552368164063	1547.566650390625	-834.5789794921877	-361.4050598144532	1337.858032226563	-734.4938354492189	-312.1892395019532	1328.829467773438	-740.5037231445314	-330.3537902832032	1275.736206054688	-721.5433959960939	-321.1795043945313	1231.865966796875	-715.4893188476564	-353.4822082519532	1203.919189453125	-794.8477172851565	-186.0747680664063	1007.981872558594	-770.770446777344	-239.5904693603516	988.548767089844	-720.0857543945314	-140.8958892822266	946.473815917969	-753.0926513671876	-269.6014404296876	1059.928955078125	-1105.913330078125	-263.8282775878907	1056.2099609375	-878.1763305664065	-446.6322326660157	1126.478759765625	-986.4653320312502	-460.4738159179689	1099.870483398438	-958.7952270507815	-371.6251831054688	845.9072265625002	-1165.480834960938	-330.4088745117188	771.8616943359377	-1158.64404296875	-283.1873779296876	779.474060058594	-1149.876708984375	-353.7835388183594	717.2924804687501	-1148.35107421875	-323.2675781250001	539.1361083984376	-1127.361206054688	-318.0778198242188	524.3374023437501	-1007.833374023438	-302.0235290527344	347.5964050292969	-1065.744750976563	-350.6306762695313	304.8103332519532	-1129.115356445313	-313.3408813476563	300.4388122558594	-1101.745971679688	-320.8689270019532	223.4847717285157	-1067.196899414063	-382.7947387695313	133.3429107666016	-1105.241821289063	-345.7495422363282	137.6331481933594	-1023.734985351563	-448.819793701172	117.1710968017578	-1063.200317382813	-241.8380279541016	63.67861175537111	-1039.003662109375	-235.6213073730469	59.02041244506837	-1084.968627929688	-284.3863830566407	45.43745803833009	-1137.47412109375	-373.7526855468751	800.2197265625002	-786.6201171875002	-333.4701843261719	748.2850341796876	-776.4903564453127	-300.3415222167969	751.0213012695314	-780.133239746094	-356.4934387207032	666.9282836914064	-785.6428222656252	-349.2192993164063	543.2279663085939	-771.2517089843752	-326.2842407226563	510.3010559082032	-884.9283447265627	-317.7050476074219	375.9457092285157	-756.9710693359376	-401.6824951171876	303.9538574218751	-736.0465698242189	-355.3473510742188	300.3448791503907	-733.7766723632814	-332.6285400390626	248.3663024902344	-754.7872924804689	-392.2247924804689	137.0928649902344	-728.2807006835939	-360.6924133300782	143.2078399658203	-806.3237304687502	-451.8494873046876	115.0782852172852	-776.271911621094	-245.2087554931641	55.99918365478517	-783.676940917969	-241.3556518554688	57.8030128479004	-731.3872070312501	-288.4007263183594	51.31690216064455	-682.7423095703126	nan	nan	nan	-4216.569335937501	853.1027832031252	-3944.870117187501	nan	nan	nan	
3	0.01	-235.6792755126954	1786.886962890625	-993.1796875000002	-410.3434448242189	1706.455444335938	-1060.93505859375	-382.1082153320313	1708.0546875	-910.0874023437502	-432.9087829589845	1557.641967773438	-997.5069580078127	-441.831268310547	1240.119995117188	-985.8633422851565	-272.4722900390626	1503.160888671875	-1010.998168945313	-370.4245910644532	1545.158447265625	-1175.4052734375	-371.8207397460938	1352.827026367188	-1264.261474609375	-329.7842102050782	1329.10791015625	-1257.939453125	-365.8887634277344	1286.55859375	-1283.994018554688	-357.6883239746094	1238.95166015625	-1290.689575195313	-369.1507263183594	1199.821655273438	-1215.158813476563	-194.7762603759766	1013.740051269531	-1278.110473632813	-250.160873413086	998.9549560546877	-1324.505004882813	-147.4256591796875	964.951354980469	-1316.177856445313	-327.6413269042969	1547.461181640625	-835.0796508789065	-360.1533203125001	1337.822875976563	-734.5767211914064	-311.4654846191407	1329.067138671875	-740.6743774414064	-329.2845458984376	1275.814331054688	-721.7092895507814	-319.4015197753907	1232.17333984375	-716.2056884765626	-352.6126403808594	1203.87646484375	-794.7445068359377	-184.9346466064453	1008.027038574219	-771.388854980469	-237.8498687744141	988.7837524414065	-720.3425292968751	-139.6133270263672	946.4976806640627	-754.1054077148439	-269.5384826660157	1059.886840820313	-1106.35009765625	-263.8105163574219	1056.162963867188	-878.6589355468752	-446.7062988281251	1126.333740234375	-986.8169555664065	-460.4443969726564	1099.765014648438	-959.1453247070315	-371.3693237304688	845.746765136719	-1165.800537109375	-330.1382141113282	771.792663574219	-1158.933837890625	-283.0459594726563	779.3886718750002	-1150.1513671875	-353.4773864746094	717.1571044921876	-1148.688110351563	-322.8616638183594	539.0407104492189	-1127.56982421875	-317.9025573730469	524.3700561523439	-1007.942932128906	-301.7759704589844	347.5364990234376	-1065.841430664063	-350.5739746093751	305.3414306640626	-1129.157470703125	-313.0716247558594	300.3181762695313	-1101.760986328125	-320.7478942871094	223.3912353515626	-1067.2626953125	-382.7847900390626	133.3551483154297	-1105.258544921875	-345.7650451660157	137.6467742919922	-1023.726867675781	-448.7899780273439	117.1826629638672	-1063.210205078125	-241.7955322265626	63.68046951293947	-1039.009399414063	-235.6531066894532	59.00740814208986	-1085.00732421875	-284.3995056152344	45.42411041259766	-1137.479370117188	-373.5909729003907	800.1643066406252	-786.952575683594	-333.4186401367188	748.2480468750001	-776.7320556640627	-300.2092590332032	751.0108642578126	-780.4477539062502	-356.4370422363282	666.9204101562501	-785.8462524414065	-349.1712646484376	543.2206420898439	-771.404479980469	-326.1377258300782	510.2126464843751	-885.105163574219	-317.6699829101563	375.9069519042969	-757.0653076171876	-401.5966796875001	303.9391479492188	-736.1681518554689	-355.2424926757813	300.3041076660157	-733.8916015625001	-332.5928344726563	248.3031005859376	-754.8582763671876	-392.1919250488282	137.0813903808594	-728.3186035156251	-360.7041320800782	143.168441772461	-806.3960571289065	-451.846649169922	115.0821914672852	-776.284118652344	-245.1892242431641	56.01244354248048	-783.6954345703127	-241.3753509521485	57.78398895263673	-731.3756103515626	-288.3894348144532	51.32911682128908	-682.7629394531251	nan	nan	nan	-4216.651855468751	853.0950927734377	-3944.856201171876	nan	nan	nan	
4	0.015	-235.2204132080079	1786.459594726563	-993.5296630859377	-410.5157470703126	1706.58056640625	-1061.410278320313	-382.2764282226563	1707.986328125	-910.5446777343752	-433.0804748535157	1557.523803710938	-997.7979125976565	-441.9332275390626	1239.984008789063	-986.285339355469	-272.6799621582032	1503.175170898438	-1011.451904296875	-370.6517028808594	1545.184814453125	-1175.670532226563	-370.6739196777344	1353.177001953125	-1265.085815429688	-328.2254028320313	1329.473388671875	-1258.601318359375	-364.4680175781251	1287.034912109375	-1284.962158203125	-355.8519592285157	1239.47607421875	-1291.772583007813	-368.6564025878907	1200.022827148438	-1216.415771484375	-194.1502532958985	1013.825134277344	-1277.6904296875	-249.0210571289063	999.770202636719	-1325.131591796875	-145.4370880126953	966.7082519531252	-1315.53271484375	-327.7353820800782	1547.336547851563	-835.6463623046877	-359.1846618652344	1337.858032226563	-734.8184814453126	-310.4306945800782	1329.316772460938	-740.9533081054689	-328.1092529296876	1275.9208984375	-721.8439941406251	-317.9136352539063	1232.288696289063	-716.5366210937501	-351.6592712402344	1203.825561523438	-794.5603637695315	-183.7696685791016	1008.181213378906	-772.2819824218752	-236.1631774902344	989.1456298828127	-720.7628784179689	-138.5648803710938	946.6300048828127	-754.8828125000001	-269.5938720703126	1059.847045898438	-1106.761474609375	-263.7927551269532	1056.099609375	-879.0905761718752	-446.5857543945314	1125.962036132813	-987.0743408203127	-460.5731506347657	1099.62158203125	-959.541931152344	-371.1776733398438	845.5665283203127	-1166.169067382813	-329.8849182128907	771.6572875976565	-1159.191162109375	-282.7984008789063	779.2788085937502	-1150.34912109375	-353.2110290527344	717.0090332031251	-1148.908325195313	-322.3132019042969	538.9069213867189	-1127.75830078125	-317.5970458984376	524.4350585937501	-1008.132263183594	-301.4513549804688	347.3281555175782	-1065.88330078125	-349.3289184570313	306.2524719238282	-1129.401733398438	-313.0820312500001	299.8966674804688	-1101.966430664063	-320.3755187988282	223.7567443847657	-1067.959594726563	-382.7807922363282	133.3609313964844	-1105.250854492188	-345.7495727539063	137.6331939697266	-1023.734985351563	-448.7600097656251	117.1533355712891	-1063.2080078125	-241.7955322265626	63.68046951293947	-1039.009399414063	-235.6475372314454	58.98989105224611	-1085.010498046875	-284.3906555175782	45.43623733520509	-1137.431274414063	-373.5510864257813	800.1467895507815	-787.2597656250002	-333.3445434570313	748.2280273437501	-776.9511718750002	-300.0811157226563	750.9650268554689	-780.7740478515627	-356.3535766601563	666.9099731445314	-786.0600585937502	-349.1091308593751	543.2161865234376	-771.585876464844	-326.0622863769532	510.1562500000001	-885.282165527344	-317.6022644042969	375.9196472167969	-757.2341308593751	-401.5596923828126	304.0151367187501	-736.2496948242189	-355.1174621582032	300.2996520996094	-734.0213012695314	-332.5452575683594	248.2676239013672	-754.9591674804689	-392.1223754882814	137.1170654296875	-728.3530273437501	-360.6279296875001	143.1493377685547	-806.4209594726565	-451.8598937988282	115.0668258666992	-776.3218994140627	-245.1784362792969	55.99213027954103	-783.6866455078127	-241.349594116211	57.7864456176758	-731.3870239257814	-288.3867797851563	51.325252532959	-682.7765502929689	nan	nan	nan	-4216.598632812501	853.0415039062502	-3944.707763671876	nan	nan	nan	
